<svg width="359" height="514" viewBox="0 0 359 514" fill="none" xmlns="http://www.w3.org/2000/svg">
<rect width="359" height="514" fill="white"/>
<path fill-rule="evenodd" clip-rule="evenodd" d="M37.5333 158.163C36.8724 126.27 46.0246 91.4978 67.2817 44.0215L62.7183 41.9783C41.3327 89.7414 31.8513 125.303 32.5344 158.267C33.2178 191.251 44.074 221.341 62.7713 258.133L67.2287 255.867C48.6589 219.326 38.1937 190.035 37.5333 158.163Z" fill="black"/>
<path fill-rule="evenodd" clip-rule="evenodd" d="M270.533 158.163C269.872 126.27 279.025 91.4978 300.282 44.0215L295.718 41.9783C274.333 89.7414 264.851 125.303 265.534 158.267C266.218 191.251 277.074 221.341 295.771 258.133L300.229 255.867C281.659 219.326 271.194 190.035 270.533 158.163Z" fill="black"/>
<path fill-rule="evenodd" clip-rule="evenodd" d="M88.4963 357.387C88.6843 326.663 81.771 295.746 67.349 256.145L62.6509 257.856C76.966 297.163 83.6793 327.454 83.4964 357.357C83.3133 387.266 76.2302 416.985 62.6447 455.162L67.3553 456.838C81.0229 418.431 88.3083 388.104 88.4963 357.387Z" fill="black"/>
<path fill-rule="evenodd" clip-rule="evenodd" d="M321.496 357.387C321.684 326.663 314.771 295.746 300.349 256.145L295.651 257.856C309.966 297.163 316.679 327.454 316.496 357.357C316.313 387.266 309.23 416.985 295.645 455.162L300.355 456.838C314.023 418.431 321.308 388.104 321.496 357.387Z" fill="black"/>
<path fill-rule="evenodd" clip-rule="evenodd" d="M278.533 158.184C277.868 126.076 287.086 91.1466 308.369 43.6129L305.631 42.387C284.271 90.0927 274.856 125.496 275.534 158.246C276.213 191.008 286.991 220.938 305.663 257.68L308.337 256.32C289.742 219.729 279.199 190.278 278.533 158.184Z" fill="black"/>
<path fill-rule="evenodd" clip-rule="evenodd" d="M329.496 357.381C329.683 326.821 322.81 296.029 308.409 256.487L305.591 257.513C319.927 296.88 326.68 327.296 326.496 357.363C326.312 387.434 319.189 417.274 305.587 455.497L308.413 456.503C322.064 418.142 329.309 387.937 329.496 357.381Z" fill="black"/>
<path fill-rule="evenodd" clip-rule="evenodd" d="M297.009 456H65V451H297.009V456Z" fill="black"/>
<path fill-rule="evenodd" clip-rule="evenodd" d="M297.009 43H65V38H297.009V43Z" fill="black"/>
<path fill-rule="evenodd" clip-rule="evenodd" d="M307 43H294V38H307V43Z" fill="black"/>
<path fill-rule="evenodd" clip-rule="evenodd" d="M309 456H296V451H309V456Z" fill="black"/>
<path d="M59 92C59 90.8954 59.8954 90 61 90H153C154.105 90 155 90.8954 155 92C155 93.1046 154.105 94 153 94H61C59.8954 94 59 93.1046 59 92Z" fill="#1E1F26"/>
<path d="M163 92C163 90.8954 163.588 90 164.312 90H224.688C225.412 90 226 90.8954 226 92C226 93.1046 225.412 94 224.688 94H164.312C163.588 94 163 93.1046 163 92Z" fill="#1E1F26"/>
<path d="M234 92C234 90.8954 234.168 90 234.375 90H251.625C251.832 90 252 90.8954 252 92C252 93.1046 251.832 94 251.625 94H234.375C234.168 94 234 93.1046 234 92Z" fill="#1E1F26"/>
<path d="M54 107C54 105.895 54.597 105 55.3333 105H116.667C117.403 105 118 105.895 118 107C118 108.105 117.403 109 116.667 109H55.3333C54.597 109 54 108.105 54 107Z" fill="#1E1F26"/>
<path d="M123 107C123 105.895 123.448 105 124 105H170C170.552 105 171 105.895 171 107C171 108.105 170.552 109 170 109H124C123.448 109 123 108.105 123 107Z" fill="#1E1F26"/>
<path d="M176 122C176 120.895 176.448 120 177 120H223C223.552 120 224 120.895 224 122C224 123.105 223.552 124 223 124H177C176.448 124 176 123.105 176 122Z" fill="#1E1F26"/>
<path d="M123 167C123 165.895 123.448 165 124 165H170C170.552 165 171 165.895 171 167C171 168.105 170.552 169 170 169H124C123.448 169 123 168.105 123 167Z" fill="#1E1F26"/>
<path d="M50 152C50 150.895 50.1399 150 50.3125 150H64.6875C64.8601 150 65 150.895 65 152C65 153.105 64.8601 154 64.6875 154H50.3125C50.1399 154 50 153.105 50 152Z" fill="#1E1F26"/>
<path d="M176 107C176 105.895 176.718 105 177.604 105H251.396C252.282 105 253 105.895 253 107C253 108.105 252.282 109 251.396 109H177.604C176.718 109 176 108.105 176 107Z" fill="#1E1F26"/>
<path d="M50 122C50 120.895 51.0633 120 52.375 120H161.625C162.937 120 164 120.895 164 122C164 123.105 162.937 124 161.625 124H52.375C51.0633 124 50 123.105 50 122Z" fill="#1E1F26"/>
<path d="M155 137C155 135.895 155.895 135 157 135H249C250.105 135 251 135.895 251 137C251 138.105 250.105 139 249 139H157C155.895 139 155 138.105 155 137Z" fill="#1E1F26"/>
<path d="M75 152C75 150.895 75.541 150 76.2083 150H131.792C132.459 150 133 150.895 133 152C133 153.105 132.459 154 131.792 154H76.2083C75.541 154 75 153.105 75 152Z" fill="#1E1F26"/>
<path d="M46 167C46 165.895 46.541 165 47.2083 165H102.792C103.459 165 104 165.895 104 167C104 168.105 103.459 169 102.792 169H47.2083C46.541 169 46 168.105 46 167Z" fill="#1E1F26"/>
<path d="M50 137C50 135.895 50.8954 135 52 135H144C145.105 135 146 135.895 146 137C146 138.105 145.105 139 144 139H52C50.8954 139 50 138.105 50 137Z" fill="#1E1F26"/>
<path d="M146 152C146 150.895 146.895 150 148 150H240C241.105 150 242 150.895 242 152C242 153.105 241.105 154 240 154H148C146.895 154 146 153.105 146 152Z" fill="#1E1F26"/>
<path d="M156 182C156 180.895 156.895 180 158 180H250C251.105 180 252 180.895 252 182C252 183.105 251.105 184 250 184H158C156.895 184 156 183.105 156 182Z" fill="#1E1F26"/>
<path d="M79.6661 65.8754L79.4357 71.1536L76.9673 71.0458L77.5875 56.8406L83.0218 57.0778C84.6088 57.1471 85.8494 57.6151 86.7434 58.4817C87.6439 59.3487 88.0645 60.4618 88.0052 61.8212C87.9444 63.2131 87.4386 64.276 86.4877 65.01C85.5433 65.7443 84.2483 66.0755 82.6028 66.0036L79.6661 65.8754ZM79.7526 63.8949L82.7185 64.0243C83.5966 64.0627 84.2755 63.8871 84.7551 63.4974C85.2351 63.1013 85.4921 62.513 85.5262 61.7325C85.5597 60.965 85.3523 60.3434 84.9039 59.8677C84.4557 59.3854 83.8222 59.1199 83.0032 59.0711L79.969 58.9386L79.7526 63.8949Z" fill="black"/>
<path d="M92.5029 71.7241L90.0443 71.6167L90.6645 57.4115L93.1231 57.5189L92.5029 71.7241Z" fill="black"/>
<path d="M98.3858 66.6927L98.1553 71.9709L95.687 71.8631L96.3072 57.6579L101.741 57.8952C103.328 57.9645 104.569 58.4324 105.463 59.2991C106.364 60.166 106.784 61.2791 106.725 62.6385C106.664 64.0304 106.158 65.0934 105.207 65.8273C104.263 66.5616 102.968 66.8928 101.322 66.8209L98.3858 66.6927ZM98.4722 64.7122L101.438 64.8417C102.316 64.88 102.995 64.7044 103.475 64.3148C103.955 63.9187 104.212 63.3304 104.246 62.5498C104.279 61.7823 104.072 61.1607 103.624 60.685C103.175 60.2027 102.542 59.9372 101.723 59.8884L98.6886 59.756L98.4722 64.7122Z" fill="black"/>
<path d="M117.197 66.4486L111.363 66.1938L111.172 70.5647L117.992 70.8624L117.906 72.8332L108.618 72.4277L109.238 58.2225L118.458 58.625L118.371 60.6153L111.619 60.3205L111.448 64.2426L117.282 64.4973L117.197 66.4486Z" fill="black"/>
<path d="M120.065 72.9275L120.686 58.7223L124.881 58.9054C126.136 58.9603 127.236 59.2885 128.181 59.8902C129.132 60.4921 129.852 61.3186 130.34 62.3695C130.829 63.4205 131.044 64.6094 130.986 65.9363L130.955 66.6485C130.896 67.9948 130.575 69.1668 129.99 70.1644C129.412 71.1623 128.614 71.9159 127.594 72.4253C126.582 72.935 125.435 73.1619 124.153 73.106L120.065 72.9275ZM123.067 60.8203L122.62 71.0645L124.23 71.1348C125.524 71.1913 126.533 70.8313 127.258 70.0549C127.989 69.2723 128.395 68.1235 128.474 66.6086L128.508 65.8183C128.576 64.2768 128.292 63.0849 127.658 62.2426C127.023 61.4004 126.069 60.9514 124.794 60.8957L123.067 60.8203Z" fill="black"/>
<path d="M141.15 70.5344L135.648 70.2941L134.352 73.5513L131.786 73.4392L137.772 59.4683L139.987 59.565L144.743 74.0049L142.167 73.8925L141.15 70.5344ZM136.427 68.3341L140.545 68.5138L138.743 62.5311L136.427 68.3341Z" fill="black"/>
<rect x="179" y="165" width="58" height="4" rx="2" fill="#1E1F26"/>
<rect x="86" y="180" width="58" height="4" rx="2" fill="#1E1F26"/>
</svg>
